<svg width="32" height="32" viewBox="0 0 32 32" fill="none" xmlns="http://www.w3.org/2000/svg">
<path d="M5.56464 29.102C5.97339 29.5108 6.45254 29.7167 7 29.7167H24.3333C24.8808 29.7167 25.3599 29.5108 25.7687 29.102C26.1774 28.6933 26.3833 28.2141 26.3833 27.6667V10.3333C26.3833 9.78587 26.1774 9.30672 25.7687 8.89798C25.3599 8.48923 24.8808 8.28333 24.3333 8.28333H20.7167V8C20.7167 6.5871 20.2283 5.39094 19.252 4.41464C18.2757 3.43835 17.0796 2.95 15.6667 2.95C14.2538 2.95 13.0576 3.43835 12.0813 4.41464C11.105 5.39094 10.6167 6.5871 10.6167 8V8.28333H7C6.45254 8.28333 5.97339 8.48923 5.56464 8.89798C5.1559 9.30672 4.95 9.78587 4.95 10.3333V27.6667C4.95 28.2141 5.1559 28.6933 5.56464 29.102ZM24.2833 10.3833V27.6167H7.05V10.3833H10.6167V13.3333C10.6167 13.6343 10.7156 13.8863 10.9146 14.0854C11.1137 14.2844 11.3657 14.3833 11.6667 14.3833C11.9676 14.3833 12.2196 14.2844 12.4187 14.0854C12.6178 13.8863 12.7167 13.6343 12.7167 13.3333V10.3833H18.6167V13.3333C18.6167 13.6343 18.7156 13.8863 18.9146 14.0854C19.1137 14.2844 19.3657 14.3833 19.6667 14.3833C19.9676 14.3833 20.2196 14.2844 20.4187 14.0854C20.6178 13.8863 20.7167 13.6343 20.7167 13.3333V10.3833H24.2833ZM18.6167 8V8.28333H12.7167V8C12.7167 7.16832 13.0006 6.47008 13.5687 5.90202C14.1367 5.33397 14.835 5.05 15.6667 5.05C16.4983 5.05 17.1966 5.33397 17.7646 5.90202C18.3327 6.47008 18.6167 7.16832 18.6167 8Z" fill="black" stroke="black" stroke-width="0.1"/>
</svg>
