<svg width="32" height="27" viewBox="0 0 32 27" fill="none" xmlns="http://www.w3.org/2000/svg">
<path d="M7.57509 0.508721C6.48713 0.658784 5.32414 1.04645 4.405 1.57167C2.07277 2.90973 0.540875 5.11691 0.0844325 7.80554C-0.0656306 8.68091 -0.00935696 10.1878 0.203233 11.0382C0.409569 11.851 0.684685 12.5575 1.12862 13.4267C3.11071 17.3033 8.03153 21.849 14.6281 25.9007C16.0849 26.7948 15.9474 26.7448 16.3663 26.5072C17.1354 26.0757 18.8423 25.0128 19.9115 24.2937C24.6385 21.1111 28.3463 17.6284 30.2596 14.5709C31.085 13.2516 31.7102 11.7072 31.9228 10.4692C32.0479 9.73761 32.0166 8.09942 31.8603 7.41163C31.2788 4.79803 29.6281 2.62836 27.3397 1.45287C26.5706 1.05895 26.1954 0.915142 25.4451 0.727563C23.5005 0.233605 21.5497 0.396174 19.7052 1.20276C18.5172 1.72173 17.1104 2.82845 16.3663 3.82887C16.1912 4.06022 16.0286 4.25405 16.0036 4.25405C15.9786 4.25405 15.8161 4.06647 15.6472 3.82887C14.453 2.23445 12.4521 0.990174 10.4325 0.596258C9.80102 0.471205 8.2066 0.421184 7.57509 0.508721Z" fill="#B2B2B2"/>
</svg>
