<svg width="32" height="32" viewBox="0 0 32 32" fill="none" xmlns="http://www.w3.org/2000/svg">
<path d="M15.5506 17.1194C13.8249 17.1194 12.3476 16.505 11.1187 15.276C9.88975 14.0471 9.27529 12.5698 9.27529 10.8441V5.35324C9.27529 4.69956 9.50408 4.14393 9.96165 3.68636C10.4192 3.22879 10.9749 3 11.6285 3C12.0207 3 12.3933 3.09152 12.7463 3.27454C13.0993 3.45757 13.3804 3.71904 13.5896 4.05896C13.7987 3.71904 14.0798 3.45757 14.4328 3.27454C14.7858 3.09152 15.1584 3 15.5506 3C15.9428 3 16.3154 3.09152 16.6684 3.27454C17.0214 3.45757 17.3024 3.71904 17.5116 4.05896C17.7208 3.71904 18.0019 3.45757 18.3549 3.27454C18.7078 3.09152 19.0804 3 19.4726 3C20.1263 3 20.6819 3.22879 21.1395 3.68636C21.5971 4.14393 21.8259 4.69956 21.8259 5.35324V10.8441C21.8259 12.5698 21.2114 14.0471 19.9825 15.276C18.7536 16.505 17.2763 17.1194 15.5506 17.1194ZM15.5506 14.7662C16.6488 14.7662 17.577 14.387 18.3352 13.6288C19.0935 12.8705 19.4726 11.9423 19.4726 10.8441V6.13765H11.6285V10.8441C11.6285 11.9423 12.0077 12.8705 12.7659 13.6288C13.5242 14.387 14.4524 14.7662 15.5506 14.7662ZM3 29.67V25.9833C3 24.9897 3.2484 24.1399 3.74519 23.4339C4.24199 22.728 4.88259 22.1919 5.667 21.8259C7.41885 21.0415 9.0988 20.4532 10.7068 20.061C12.3149 19.6688 13.9295 19.4726 15.5506 19.4726C17.1717 19.4726 18.7798 19.6753 20.3747 20.0806C21.9697 20.4858 23.6431 21.0676 25.395 21.8259C26.2055 22.1919 26.8592 22.728 27.356 23.4339C27.8528 24.1399 28.1012 24.9897 28.1012 25.9833V29.67H3ZM5.35324 27.3168H25.7479V25.9833C25.7479 25.5649 25.6237 25.1662 25.3753 24.787C25.127 24.4079 24.8197 24.1268 24.4537 23.9438C22.7802 23.1332 21.2506 22.5776 19.8649 22.2769C18.4791 21.9762 17.041 21.8259 15.5506 21.8259C14.0602 21.8259 12.609 21.9762 11.1971 22.2769C9.78516 22.5776 8.25556 23.1332 6.60829 23.9438C6.24224 24.1268 5.94154 24.4079 5.70622 24.787C5.4709 25.1662 5.35324 25.5649 5.35324 25.9833V27.3168Z" fill="black"/>
</svg>
