<svg width="111" height="70" viewBox="0 0 111 70" fill="none" xmlns="http://www.w3.org/2000/svg">
<path d="M4.14457 35C3.78102 35 3.46704 34.8678 3.20264 34.6034C2.93824 34.339 2.80604 34.025 2.80604 33.6615V1.63601C2.80604 1.27246 2.93824 0.958488 3.20264 0.694087C3.46704 0.429687 3.78102 0.297486 4.14457 0.297486H18.8188C23.578 0.297486 27.2961 1.37161 29.9732 3.51986C32.6502 5.66811 33.9887 8.60956 33.9887 12.3442C33.9887 14.5586 33.4765 16.492 32.4519 18.1445C31.4604 19.7639 30.188 21.0694 28.6346 22.0609L34.7324 33.364C34.8315 33.5623 34.8811 33.7441 34.8811 33.9093C34.8811 34.2068 34.7654 34.4712 34.5341 34.7025C34.3358 34.9008 34.0879 35 33.7904 35H23.6276C22.9666 35 22.4708 34.8347 22.1403 34.5042C21.8098 34.1737 21.595 33.8928 21.4958 33.6615L17.2324 24.1926H15.1998V33.6615C15.1998 34.025 15.0676 34.339 14.8032 34.6034C14.5388 34.8678 14.2248 35 13.8613 35H4.14457ZM15.1998 14.7734H18.8188C19.5789 14.7734 20.1408 14.5255 20.5043 14.0298C20.9009 13.501 21.0992 12.9061 21.0992 12.2451C21.0992 11.5841 20.9175 10.9726 20.5539 10.4108C20.2234 9.81589 19.645 9.51844 18.8188 9.51844H15.1998V14.7734ZM36.9474 35C36.6499 35 36.3855 34.9008 36.1542 34.7025C35.9559 34.4712 35.8567 34.2068 35.8567 33.9093C35.8567 33.7771 35.8732 33.6615 35.9063 33.5623L46.9615 1.93346C47.0607 1.56991 47.292 1.20636 47.6556 0.842813C48.0191 0.479262 48.5314 0.297486 49.1924 0.297486H59.9502C60.6112 0.297486 61.1234 0.479262 61.487 0.842813C61.8505 1.20636 62.0819 1.56991 62.181 1.93346L73.2363 33.5623C73.2693 33.6615 73.2858 33.7771 73.2858 33.9093C73.2858 34.2068 73.1702 34.4712 72.9388 34.7025C72.7405 34.9008 72.4926 35 72.1952 35H63.0238C62.3959 35 61.9332 34.8678 61.6357 34.6034C61.3713 34.3059 61.1895 34.025 61.0904 33.7606L59.9006 30.4887H49.242L48.0522 33.7606C47.953 34.025 47.7712 34.3059 47.5068 34.6034C47.2424 34.8678 46.7797 35 46.1187 35H36.9474ZM51.7703 20.8215H57.3723L54.5465 11.6006L51.7703 20.8215ZM77.3452 35C76.9816 35 76.6677 34.8678 76.4033 34.6034C76.1389 34.339 76.0067 34.025 76.0067 33.6615V1.63601C76.0067 1.27246 76.1389 0.958488 76.4033 0.694087C76.6677 0.429687 76.9816 0.297486 77.3452 0.297486H91.6228C94.7295 0.297486 97.5057 0.826287 99.9514 1.88389C102.397 2.90844 104.347 4.42874 105.801 6.44479C107.288 8.46084 108.082 10.9561 108.181 13.9306C108.247 15.3518 108.28 16.6077 108.28 17.6983C108.28 18.7559 108.247 19.9622 108.181 21.3173C108.049 24.424 107.288 27.0019 105.9 29.051C104.512 31.067 102.612 32.5708 100.199 33.5623C97.8197 34.5208 95.0435 35 91.8707 35H77.3452ZM88.4004 25.3329H91.6228C92.3499 25.3329 92.9944 25.2007 93.5562 24.9363C94.1511 24.6388 94.6303 24.1926 94.9939 23.5977C95.3574 23.0028 95.5557 22.2427 95.5888 21.3173C95.6549 20.3588 95.6879 19.4995 95.6879 18.7394C95.721 17.9792 95.721 17.2191 95.6879 16.4589C95.6879 15.6657 95.6549 14.823 95.5888 13.9306C95.5227 12.5425 95.0765 11.5345 94.2503 10.9065C93.4571 10.2786 92.4986 9.96462 91.3749 9.96462H88.4004V25.3329Z" fill="white"/>
<rect width="110.057" height="28.737" transform="translate(0 41.263)" fill="white"/>
<path d="M20.3967 64.3794C18.5624 64.3794 17.0503 64.1315 15.8605 63.6358C14.6707 63.14 13.7784 62.4873 13.1835 61.6776C12.5886 60.8679 12.2746 60.0086 12.2416 59.0997C12.2416 58.951 12.2911 58.827 12.3903 58.7279C12.506 58.6122 12.6382 58.5544 12.7869 58.5544H17.4965C17.7609 58.5544 17.9592 58.5957 18.0914 58.6783C18.2401 58.7444 18.3971 58.8435 18.5624 58.9757C18.7276 59.0914 18.8929 59.1988 19.0581 59.298C19.2399 59.3806 19.4382 59.4467 19.653 59.4963C19.8844 59.5293 20.1323 59.5459 20.3967 59.5459C20.9585 59.5459 21.4047 59.488 21.7352 59.3723C22.0822 59.2401 22.2557 59.0666 22.2557 58.8518C22.2557 58.6535 22.1566 58.4883 21.9583 58.3561C21.7765 58.2239 21.4543 58.1082 20.9916 58.009C20.5289 57.8934 19.8844 57.7859 19.0581 57.6868C17.7527 57.505 16.6207 57.1993 15.6622 56.7697C14.7038 56.34 13.9602 55.7534 13.4314 55.0097C12.9191 54.2496 12.663 53.3242 12.663 52.2335C12.663 51.1098 12.9769 50.1183 13.6049 49.259C14.2494 48.3997 15.1334 47.7305 16.2571 47.2512C17.3974 46.772 18.7194 46.5324 20.2231 46.5324C21.4625 46.5324 22.5614 46.6977 23.5199 47.0282C24.4783 47.3421 25.2881 47.7635 25.9491 48.2923C26.6101 48.8046 27.1141 49.3582 27.4611 49.9531C27.8081 50.548 27.9899 51.1181 28.0064 51.6634C28.0064 51.8122 27.9486 51.9444 27.8329 52.06C27.7338 52.1592 27.6181 52.2088 27.4859 52.2088H22.5284C22.297 52.2088 22.107 52.1757 21.9583 52.1096C21.8261 52.0435 21.6856 51.9444 21.5369 51.8122C21.4543 51.7295 21.2973 51.6386 21.0659 51.5395C20.8511 51.4238 20.5702 51.366 20.2231 51.366C19.81 51.366 19.5043 51.4321 19.306 51.5643C19.1242 51.68 19.0333 51.8452 19.0333 52.06C19.0333 52.2088 19.1077 52.3492 19.2564 52.4814C19.4052 52.6136 19.6778 52.7293 20.0744 52.8284C20.471 52.9276 21.0411 53.0267 21.7848 53.1259C23.4373 53.3242 24.7593 53.6464 25.7508 54.0926C26.7588 54.5223 27.4859 55.1006 27.9321 55.8277C28.3948 56.5548 28.6261 57.4554 28.6261 58.5296C28.6261 59.7359 28.2626 60.777 27.5355 61.6528C26.8249 62.5286 25.8499 63.2061 24.6105 63.6854C23.3712 64.1481 21.9665 64.3794 20.3967 64.3794ZM34.7841 64.1315C34.6023 64.1315 34.4453 64.0654 34.3131 63.9332C34.1809 63.801 34.1148 63.6441 34.1148 63.4623V52.1096H30.0001C29.8183 52.1096 29.6613 52.0435 29.5291 51.9113C29.3969 51.7791 29.3308 51.6221 29.3308 51.4403V47.4496C29.3308 47.2678 29.3969 47.1108 29.5291 46.9786C29.6613 46.8464 29.8183 46.7803 30.0001 46.7803H44.5256C44.7073 46.7803 44.8643 46.8464 44.9965 46.9786C45.1287 47.1108 45.1948 47.2678 45.1948 47.4496V51.4403C45.1948 51.6221 45.1287 51.7791 44.9965 51.9113C44.8643 52.0435 44.7073 52.1096 44.5256 52.1096H40.4108V63.4623C40.4108 63.6441 40.3447 63.801 40.2125 63.9332C40.0803 64.0654 39.9233 64.1315 39.7416 64.1315H34.7841ZM54.6387 64.3794C53.0192 64.3794 51.5981 64.1315 50.3752 63.6358C49.1689 63.14 48.2104 62.3964 47.4999 61.4049C46.8058 60.3969 46.4257 59.1575 46.3596 57.6868C46.3431 57.0093 46.3348 56.2904 46.3348 55.5303C46.3348 54.7701 46.3431 54.0348 46.3596 53.3242C46.4257 51.87 46.8058 50.6389 47.4999 49.6309C48.1939 48.6228 49.1524 47.8544 50.3752 47.3256C51.5981 46.7968 53.0192 46.5324 54.6387 46.5324C56.2581 46.5324 57.6793 46.7968 58.9021 47.3256C60.125 47.8544 61.0834 48.6228 61.7775 49.6309C62.488 50.6389 62.8681 51.87 62.9177 53.3242C62.9507 54.0348 62.9673 54.7701 62.9673 55.5303C62.9673 56.2904 62.9507 57.0093 62.9177 57.6868C62.8516 59.1575 62.4632 60.3969 61.7527 61.4049C61.0586 62.3964 60.1002 63.14 58.8773 63.6358C57.671 64.1315 56.2581 64.3794 54.6387 64.3794ZM54.6387 59.5459C55.184 59.5459 55.6219 59.3889 55.9524 59.0749C56.2829 58.7444 56.4564 58.2321 56.4729 57.5381C56.506 56.8275 56.5225 56.1252 56.5225 55.4311C56.5225 54.7371 56.506 54.0513 56.4729 53.3738C56.4564 52.9111 56.3655 52.531 56.2003 52.2335C56.0515 51.9361 55.845 51.7213 55.5806 51.5891C55.3162 51.4403 55.0022 51.366 54.6387 51.366C54.2916 51.366 53.9777 51.4403 53.6967 51.5891C53.4323 51.7213 53.2175 51.9361 53.0523 52.2335C52.9035 52.531 52.8209 52.9111 52.8044 53.3738C52.7879 54.0513 52.7796 54.7371 52.7796 55.4311C52.7796 56.1252 52.7879 56.8275 52.8044 57.5381C52.8374 58.2321 53.0109 58.7444 53.3249 59.0749C53.6554 59.3889 54.0933 59.5459 54.6387 59.5459ZM65.872 64.1315C65.6903 64.1315 65.5333 64.0654 65.4011 63.9332C65.2689 63.801 65.2028 63.6441 65.2028 63.4623V47.4496C65.2028 47.2678 65.2689 47.1108 65.4011 46.9786C65.5333 46.8464 65.6903 46.7803 65.872 46.7803H73.2092C75.5888 46.7803 77.4478 47.3173 78.7863 48.3915C80.1249 49.4656 80.7941 50.9363 80.7941 52.8037C80.7941 53.9108 80.538 54.8775 80.0257 55.7038C79.53 56.5135 78.8938 57.1663 78.1171 57.662L81.1659 63.3136C81.2155 63.4127 81.2403 63.5036 81.2403 63.5862C81.2403 63.7349 81.1825 63.8671 81.0668 63.9828C80.9676 64.082 80.8437 64.1315 80.695 64.1315H75.6135C75.283 64.1315 75.0352 64.0489 74.8699 63.8837C74.7047 63.7184 74.5973 63.578 74.5477 63.4623L72.416 58.7279H71.3997V63.4623C71.3997 63.6441 71.3336 63.801 71.2014 63.9332C71.0692 64.0654 70.9122 64.1315 70.7304 64.1315H65.872ZM71.3997 54.0182H73.2092C73.5892 54.0182 73.8702 53.8943 74.0519 53.6464C74.2502 53.382 74.3494 53.0846 74.3494 52.7541C74.3494 52.4236 74.2585 52.1179 74.0767 51.8369C73.9115 51.5395 73.6223 51.3908 73.2092 51.3908H71.3997V54.0182ZM83.7607 64.1315C83.5789 64.1315 83.4219 64.0654 83.2897 63.9332C83.1575 63.801 83.0914 63.6441 83.0914 63.4623V47.4496C83.0914 47.2678 83.1575 47.1108 83.2897 46.9786C83.4219 46.8464 83.5789 46.7803 83.7607 46.7803H96.4767C96.6585 46.7803 96.8154 46.8464 96.9476 46.9786C97.0798 47.1108 97.1459 47.2678 97.1459 47.4496V50.9446C97.1459 51.1264 97.0798 51.2834 96.9476 51.4156C96.8154 51.5478 96.6585 51.6139 96.4767 51.6139H89.0404V53.1755H95.9314C96.1131 53.1755 96.2701 53.2416 96.4023 53.3738C96.5345 53.506 96.6006 53.663 96.6006 53.8447V57.0671C96.6006 57.2489 96.5345 57.4059 96.4023 57.5381C96.2701 57.6703 96.1131 57.7364 95.9314 57.7364H89.0404V59.298H96.675C96.8568 59.298 97.0137 59.3641 97.1459 59.4963C97.2782 59.6285 97.3443 59.7855 97.3443 59.9672V63.4623C97.3443 63.6441 97.2782 63.801 97.1459 63.9332C97.0137 64.0654 96.8568 64.1315 96.675 64.1315H83.7607Z" fill="black"/>
</svg>
