<svg width="28" height="28" viewBox="0 0 28 28" fill="none" xmlns="http://www.w3.org/2000/svg">
<path d="M23.436 4.57063C20.9214 2.05463 17.5774 0.667959 14.0147 0.666626C6.67335 0.666626 0.698687 6.63863 0.69602 13.98C0.694687 16.3266 1.30802 18.6173 2.47335 20.636L0.666687 27.3333L7.64402 25.684C9.58935 26.7453 11.7787 27.304 14.008 27.3053H14.0134C21.3534 27.3053 27.328 21.332 27.332 13.992C27.3347 10.4333 25.9507 7.08796 23.436 4.57063ZM20.5307 18.7386C20.2534 19.516 18.8947 20.2653 18.284 20.32C17.6734 20.376 17.1014 20.596 14.2907 19.488C10.908 18.1546 8.77202 14.6866 8.60669 14.4653C8.44002 14.2426 7.24802 12.6613 7.24802 11.024C7.24802 9.38663 8.10802 8.58129 8.41335 8.24929C8.71869 7.91596 9.07869 7.83329 9.30135 7.83329C9.52269 7.83329 9.74535 7.83329 9.93869 7.84129C10.176 7.85063 10.4387 7.86263 10.688 8.41596C10.984 9.07463 11.6307 10.72 11.7134 10.8866C11.796 11.0533 11.852 11.248 11.7414 11.4693C11.6307 11.6906 11.5747 11.8293 11.4094 12.024C11.2427 12.2186 11.06 12.4573 10.9107 12.6066C10.744 12.772 10.5707 12.9533 10.764 13.2853C10.9587 13.6186 11.6254 14.708 12.6147 15.5893C13.8867 16.7226 14.9574 17.0733 15.2907 17.2413C15.624 17.408 15.8174 17.38 16.012 17.1573C16.2067 16.936 16.844 16.1866 17.0654 15.8533C17.2867 15.52 17.5094 15.576 17.8147 15.6866C18.12 15.7973 19.756 16.6026 20.088 16.7693C20.4214 16.936 20.6427 17.0186 20.7254 17.1573C20.808 17.2946 20.808 17.9613 20.5307 18.7386Z" fill="white"/>
</svg>
